<mxfile host="Electron" modified="2023-09-07T14:07:10.756Z" agent="Mozilla/5.0 (Windows NT 10.0; Win64; x64) AppleWebKit/537.36 (KHTML, like Gecko) draw.io/21.6.8 Chrome/114.0.5735.289 Electron/25.5.0 Safari/537.36" etag="pa24F7rqUmywF014nOpG" version="21.6.8" type="device">
  <diagram name="Page-1" id="ejFTOdkBRyy3WWbsZ_Mh">
    <mxGraphModel dx="1050" dy="621" grid="1" gridSize="10" guides="1" tooltips="1" connect="1" arrows="1" fold="1" page="1" pageScale="1" pageWidth="1600" pageHeight="900" math="0" shadow="0">
      <root>
        <mxCell id="0" />
        <mxCell id="1" parent="0" />
        <mxCell id="ncrKBHB-YB45-yIMeC7d-10" style="edgeStyle=orthogonalEdgeStyle;rounded=0;orthogonalLoop=1;jettySize=auto;html=1;endArrow=none;endFill=0;dashed=1;" edge="1" parent="1">
          <mxGeometry relative="1" as="geometry">
            <mxPoint x="85" y="860" as="targetPoint" />
            <mxPoint x="84.5" y="831" as="sourcePoint" />
            <Array as="points">
              <mxPoint x="84" y="724" />
            </Array>
          </mxGeometry>
        </mxCell>
        <mxCell id="ncrKBHB-YB45-yIMeC7d-1" value="User" style="shape=umlActor;verticalLabelPosition=bottom;verticalAlign=top;html=1;outlineConnect=0;" vertex="1" parent="1">
          <mxGeometry x="70" y="80" width="30" height="60" as="geometry" />
        </mxCell>
        <mxCell id="ncrKBHB-YB45-yIMeC7d-6" style="edgeStyle=orthogonalEdgeStyle;rounded=0;orthogonalLoop=1;jettySize=auto;html=1;endArrow=none;endFill=0;dashed=1;" edge="1" parent="1">
          <mxGeometry relative="1" as="geometry">
            <mxPoint x="261" y="860" as="targetPoint" />
            <mxPoint x="260" y="643" as="sourcePoint" />
          </mxGeometry>
        </mxCell>
        <mxCell id="ncrKBHB-YB45-yIMeC7d-2" value="Booking System" style="rounded=0;whiteSpace=wrap;html=1;" vertex="1" parent="1">
          <mxGeometry x="200" y="80" width="120" height="40" as="geometry" />
        </mxCell>
        <mxCell id="ncrKBHB-YB45-yIMeC7d-7" style="edgeStyle=orthogonalEdgeStyle;rounded=0;orthogonalLoop=1;jettySize=auto;html=1;endArrow=none;endFill=0;dashed=1;" edge="1" parent="1" source="ncrKBHB-YB45-yIMeC7d-25">
          <mxGeometry relative="1" as="geometry">
            <mxPoint x="500" y="860" as="targetPoint" />
          </mxGeometry>
        </mxCell>
        <mxCell id="ncrKBHB-YB45-yIMeC7d-3" value="Database" style="rounded=0;whiteSpace=wrap;html=1;" vertex="1" parent="1">
          <mxGeometry x="440" y="80" width="120" height="40" as="geometry" />
        </mxCell>
        <mxCell id="ncrKBHB-YB45-yIMeC7d-4" value="Employee System" style="rounded=0;whiteSpace=wrap;html=1;" vertex="1" parent="1">
          <mxGeometry x="680" y="80" width="120" height="40" as="geometry" />
        </mxCell>
        <mxCell id="ncrKBHB-YB45-yIMeC7d-11" value="" style="endArrow=classic;html=1;rounded=0;edgeStyle=orthogonalEdgeStyle;" edge="1" parent="1">
          <mxGeometry width="50" height="50" relative="1" as="geometry">
            <mxPoint x="85" y="190" as="sourcePoint" />
            <mxPoint x="260" y="190" as="targetPoint" />
          </mxGeometry>
        </mxCell>
        <mxCell id="ncrKBHB-YB45-yIMeC7d-13" value="Initiates booking" style="text;html=1;strokeColor=none;fillColor=none;align=center;verticalAlign=middle;whiteSpace=wrap;rounded=0;" vertex="1" parent="1">
          <mxGeometry x="130" y="160" width="90" height="30" as="geometry" />
        </mxCell>
        <mxCell id="ncrKBHB-YB45-yIMeC7d-17" style="edgeStyle=orthogonalEdgeStyle;rounded=0;orthogonalLoop=1;jettySize=auto;html=1;exitX=1;exitY=0.75;exitDx=0;exitDy=0;" edge="1" parent="1" source="ncrKBHB-YB45-yIMeC7d-14">
          <mxGeometry relative="1" as="geometry">
            <mxPoint x="260" y="300" as="targetPoint" />
          </mxGeometry>
        </mxCell>
        <mxCell id="ncrKBHB-YB45-yIMeC7d-14" value="" style="rounded=0;whiteSpace=wrap;html=1;" vertex="1" parent="1">
          <mxGeometry x="72.5" y="240" width="25" height="80" as="geometry" />
        </mxCell>
        <mxCell id="ncrKBHB-YB45-yIMeC7d-15" style="edgeStyle=orthogonalEdgeStyle;rounded=0;orthogonalLoop=1;jettySize=auto;html=1;exitX=1;exitY=0.25;exitDx=0;exitDy=0;" edge="1" parent="1" source="ncrKBHB-YB45-yIMeC7d-14" target="ncrKBHB-YB45-yIMeC7d-14">
          <mxGeometry relative="1" as="geometry">
            <mxPoint x="100" y="270" as="targetPoint" />
            <Array as="points">
              <mxPoint x="98" y="250" />
              <mxPoint x="120" y="250" />
              <mxPoint x="120" y="270" />
            </Array>
          </mxGeometry>
        </mxCell>
        <mxCell id="ncrKBHB-YB45-yIMeC7d-16" value="selects a service, date, and time" style="text;html=1;strokeColor=none;fillColor=none;align=center;verticalAlign=middle;whiteSpace=wrap;rounded=0;" vertex="1" parent="1">
          <mxGeometry x="120" y="245" width="100" height="30" as="geometry" />
        </mxCell>
        <mxCell id="ncrKBHB-YB45-yIMeC7d-18" value="Request Slot" style="text;html=1;strokeColor=none;fillColor=none;align=center;verticalAlign=middle;whiteSpace=wrap;rounded=0;" vertex="1" parent="1">
          <mxGeometry x="130" y="294" width="90" height="30" as="geometry" />
        </mxCell>
        <mxCell id="ncrKBHB-YB45-yIMeC7d-20" value="" style="edgeStyle=orthogonalEdgeStyle;rounded=0;orthogonalLoop=1;jettySize=auto;html=1;endArrow=none;endFill=0;dashed=1;" edge="1" parent="1" source="ncrKBHB-YB45-yIMeC7d-2" target="ncrKBHB-YB45-yIMeC7d-19">
          <mxGeometry relative="1" as="geometry">
            <mxPoint x="260" y="900" as="targetPoint" />
            <mxPoint x="260" y="120" as="sourcePoint" />
          </mxGeometry>
        </mxCell>
        <mxCell id="ncrKBHB-YB45-yIMeC7d-23" style="edgeStyle=orthogonalEdgeStyle;rounded=0;orthogonalLoop=1;jettySize=auto;html=1;exitX=1;exitY=0.75;exitDx=0;exitDy=0;" edge="1" parent="1" source="ncrKBHB-YB45-yIMeC7d-19">
          <mxGeometry relative="1" as="geometry">
            <mxPoint x="500" y="381" as="targetPoint" />
          </mxGeometry>
        </mxCell>
        <mxCell id="ncrKBHB-YB45-yIMeC7d-19" value="" style="rounded=0;whiteSpace=wrap;html=1;" vertex="1" parent="1">
          <mxGeometry x="247.5" y="324" width="25" height="76" as="geometry" />
        </mxCell>
        <mxCell id="ncrKBHB-YB45-yIMeC7d-21" style="edgeStyle=orthogonalEdgeStyle;rounded=0;orthogonalLoop=1;jettySize=auto;html=1;exitX=1;exitY=0.25;exitDx=0;exitDy=0;entryX=1;entryY=0.5;entryDx=0;entryDy=0;" edge="1" parent="1" source="ncrKBHB-YB45-yIMeC7d-19" target="ncrKBHB-YB45-yIMeC7d-19">
          <mxGeometry relative="1" as="geometry">
            <Array as="points">
              <mxPoint x="290" y="343" />
              <mxPoint x="290" y="362" />
            </Array>
          </mxGeometry>
        </mxCell>
        <mxCell id="ncrKBHB-YB45-yIMeC7d-22" value="processing request" style="text;html=1;strokeColor=none;fillColor=none;align=center;verticalAlign=middle;whiteSpace=wrap;rounded=0;" vertex="1" parent="1">
          <mxGeometry x="280" y="330" width="90" height="30" as="geometry" />
        </mxCell>
        <mxCell id="ncrKBHB-YB45-yIMeC7d-24" value="Check Availability" style="text;html=1;strokeColor=none;fillColor=none;align=center;verticalAlign=middle;whiteSpace=wrap;rounded=0;" vertex="1" parent="1">
          <mxGeometry x="330" y="372" width="100" height="30" as="geometry" />
        </mxCell>
        <mxCell id="ncrKBHB-YB45-yIMeC7d-26" value="" style="edgeStyle=orthogonalEdgeStyle;rounded=0;orthogonalLoop=1;jettySize=auto;html=1;endArrow=none;endFill=0;dashed=1;" edge="1" parent="1" source="ncrKBHB-YB45-yIMeC7d-3" target="ncrKBHB-YB45-yIMeC7d-25">
          <mxGeometry relative="1" as="geometry">
            <mxPoint x="500" y="910" as="targetPoint" />
            <mxPoint x="500" y="120" as="sourcePoint" />
          </mxGeometry>
        </mxCell>
        <mxCell id="ncrKBHB-YB45-yIMeC7d-77" style="edgeStyle=orthogonalEdgeStyle;rounded=0;orthogonalLoop=1;jettySize=auto;html=1;exitX=0;exitY=0.75;exitDx=0;exitDy=0;dashed=1;" edge="1" parent="1" source="ncrKBHB-YB45-yIMeC7d-25">
          <mxGeometry relative="1" as="geometry">
            <mxPoint x="260" y="425" as="targetPoint" />
          </mxGeometry>
        </mxCell>
        <mxCell id="ncrKBHB-YB45-yIMeC7d-25" value="" style="rounded=0;whiteSpace=wrap;html=1;" vertex="1" parent="1">
          <mxGeometry x="487.5" y="389" width="25" height="48" as="geometry" />
        </mxCell>
        <mxCell id="ncrKBHB-YB45-yIMeC7d-27" style="edgeStyle=orthogonalEdgeStyle;rounded=0;orthogonalLoop=1;jettySize=auto;html=1;exitX=1;exitY=0.25;exitDx=0;exitDy=0;entryX=1;entryY=0.75;entryDx=0;entryDy=0;" edge="1" parent="1" source="ncrKBHB-YB45-yIMeC7d-25" target="ncrKBHB-YB45-yIMeC7d-25">
          <mxGeometry relative="1" as="geometry">
            <mxPoint x="530" y="437" as="targetPoint" />
            <Array as="points">
              <mxPoint x="513" y="408" />
              <mxPoint x="530" y="408" />
              <mxPoint x="530" y="425" />
            </Array>
          </mxGeometry>
        </mxCell>
        <mxCell id="ncrKBHB-YB45-yIMeC7d-28" value="checking schedule" style="text;html=1;strokeColor=none;fillColor=none;align=center;verticalAlign=middle;whiteSpace=wrap;rounded=0;" vertex="1" parent="1">
          <mxGeometry x="540" y="398" width="90" height="30" as="geometry" />
        </mxCell>
        <mxCell id="ncrKBHB-YB45-yIMeC7d-34" value="" style="edgeStyle=orthogonalEdgeStyle;rounded=0;orthogonalLoop=1;jettySize=auto;html=1;endArrow=none;endFill=0;dashed=1;" edge="1" parent="1" source="ncrKBHB-YB45-yIMeC7d-1" target="ncrKBHB-YB45-yIMeC7d-33">
          <mxGeometry relative="1" as="geometry">
            <mxPoint x="85" y="900" as="targetPoint" />
            <mxPoint x="85" y="140" as="sourcePoint" />
          </mxGeometry>
        </mxCell>
        <mxCell id="ncrKBHB-YB45-yIMeC7d-35" style="edgeStyle=orthogonalEdgeStyle;rounded=0;orthogonalLoop=1;jettySize=auto;html=1;startArrow=classic;startFill=1;endArrow=none;endFill=0;" edge="1" parent="1">
          <mxGeometry relative="1" as="geometry">
            <mxPoint x="260" y="501" as="targetPoint" />
            <mxPoint x="85" y="501" as="sourcePoint" />
          </mxGeometry>
        </mxCell>
        <mxCell id="ncrKBHB-YB45-yIMeC7d-41" style="edgeStyle=orthogonalEdgeStyle;rounded=0;orthogonalLoop=1;jettySize=auto;html=1;entryX=0.011;entryY=0.283;entryDx=0;entryDy=0;entryPerimeter=0;" edge="1" parent="1" source="ncrKBHB-YB45-yIMeC7d-33" target="ncrKBHB-YB45-yIMeC7d-43">
          <mxGeometry relative="1" as="geometry">
            <mxPoint x="240" y="566" as="targetPoint" />
          </mxGeometry>
        </mxCell>
        <mxCell id="ncrKBHB-YB45-yIMeC7d-33" value="" style="rounded=0;whiteSpace=wrap;html=1;" vertex="1" parent="1">
          <mxGeometry x="72" y="551" width="25" height="30" as="geometry" />
        </mxCell>
        <mxCell id="ncrKBHB-YB45-yIMeC7d-36" value="Confirm Booking" style="text;html=1;strokeColor=none;fillColor=none;align=center;verticalAlign=middle;whiteSpace=wrap;rounded=0;" vertex="1" parent="1">
          <mxGeometry x="130" y="475" width="100" height="30" as="geometry" />
        </mxCell>
        <mxCell id="ncrKBHB-YB45-yIMeC7d-39" value="Slot Not Avaible" style="text;html=1;strokeColor=none;fillColor=none;align=center;verticalAlign=middle;whiteSpace=wrap;rounded=0;" vertex="1" parent="1">
          <mxGeometry x="129" y="801" width="100" height="30" as="geometry" />
        </mxCell>
        <mxCell id="ncrKBHB-YB45-yIMeC7d-40" style="edgeStyle=orthogonalEdgeStyle;rounded=0;orthogonalLoop=1;jettySize=auto;html=1;startArrow=classic;startFill=1;endArrow=none;endFill=0;" edge="1" parent="1">
          <mxGeometry relative="1" as="geometry">
            <mxPoint x="259" y="794" as="targetPoint" />
            <mxPoint x="84" y="794" as="sourcePoint" />
          </mxGeometry>
        </mxCell>
        <mxCell id="ncrKBHB-YB45-yIMeC7d-42" value="Booking Confirmed" style="text;html=1;strokeColor=none;fillColor=none;align=center;verticalAlign=middle;whiteSpace=wrap;rounded=0;" vertex="1" parent="1">
          <mxGeometry x="120" y="543" width="109" height="30" as="geometry" />
        </mxCell>
        <mxCell id="ncrKBHB-YB45-yIMeC7d-44" style="edgeStyle=orthogonalEdgeStyle;rounded=0;orthogonalLoop=1;jettySize=auto;html=1;exitX=0.933;exitY=0.293;exitDx=0;exitDy=0;entryX=0;entryY=0.5;entryDx=0;entryDy=0;exitPerimeter=0;" edge="1" parent="1" source="ncrKBHB-YB45-yIMeC7d-43" target="ncrKBHB-YB45-yIMeC7d-45">
          <mxGeometry relative="1" as="geometry">
            <mxPoint x="470" y="566.9830508474575" as="targetPoint" />
          </mxGeometry>
        </mxCell>
        <mxCell id="ncrKBHB-YB45-yIMeC7d-47" style="edgeStyle=orthogonalEdgeStyle;rounded=0;orthogonalLoop=1;jettySize=auto;html=1;exitX=1;exitY=0.75;exitDx=0;exitDy=0;" edge="1" parent="1">
          <mxGeometry relative="1" as="geometry">
            <mxPoint x="740" y="619.8979591836735" as="targetPoint" />
            <mxPoint x="272.5" y="619.7499999999998" as="sourcePoint" />
          </mxGeometry>
        </mxCell>
        <mxCell id="ncrKBHB-YB45-yIMeC7d-43" value="" style="rounded=0;whiteSpace=wrap;html=1;" vertex="1" parent="1">
          <mxGeometry x="247.5" y="540" width="25" height="93" as="geometry" />
        </mxCell>
        <mxCell id="ncrKBHB-YB45-yIMeC7d-49" style="edgeStyle=orthogonalEdgeStyle;rounded=0;orthogonalLoop=1;jettySize=auto;html=1;exitX=0;exitY=0.75;exitDx=0;exitDy=0;entryX=1.005;entryY=0.531;entryDx=0;entryDy=0;entryPerimeter=0;dashed=1;" edge="1" parent="1" target="ncrKBHB-YB45-yIMeC7d-43">
          <mxGeometry relative="1" as="geometry">
            <mxPoint x="487.5" y="588.5" as="sourcePoint" />
            <mxPoint x="270.54999999999995" y="588.0830000000001" as="targetPoint" />
          </mxGeometry>
        </mxCell>
        <mxCell id="ncrKBHB-YB45-yIMeC7d-45" value="" style="rounded=0;whiteSpace=wrap;html=1;" vertex="1" parent="1">
          <mxGeometry x="487.5" y="540" width="25" height="54" as="geometry" />
        </mxCell>
        <mxCell id="ncrKBHB-YB45-yIMeC7d-46" value="save appointment" style="text;html=1;strokeColor=none;fillColor=none;align=center;verticalAlign=middle;whiteSpace=wrap;rounded=0;" vertex="1" parent="1">
          <mxGeometry x="330" y="543" width="100" height="30" as="geometry" />
        </mxCell>
        <mxCell id="ncrKBHB-YB45-yIMeC7d-48" value="Notify Employee" style="text;html=1;strokeColor=none;fillColor=none;align=center;verticalAlign=middle;whiteSpace=wrap;rounded=0;" vertex="1" parent="1">
          <mxGeometry x="330" y="594" width="100" height="30" as="geometry" />
        </mxCell>
        <mxCell id="ncrKBHB-YB45-yIMeC7d-50" value="apointment saved" style="text;html=1;strokeColor=none;fillColor=none;align=center;verticalAlign=middle;whiteSpace=wrap;rounded=0;" vertex="1" parent="1">
          <mxGeometry x="332" y="566" width="100" height="30" as="geometry" />
        </mxCell>
        <mxCell id="ncrKBHB-YB45-yIMeC7d-51" style="edgeStyle=orthogonalEdgeStyle;rounded=0;orthogonalLoop=1;jettySize=auto;html=1;exitX=1;exitY=0.5;exitDx=0;exitDy=0;entryX=1;entryY=0.75;entryDx=0;entryDy=0;" edge="1" parent="1" source="ncrKBHB-YB45-yIMeC7d-45" target="ncrKBHB-YB45-yIMeC7d-45">
          <mxGeometry relative="1" as="geometry">
            <Array as="points">
              <mxPoint x="530" y="567" />
              <mxPoint x="530" y="581" />
            </Array>
          </mxGeometry>
        </mxCell>
        <mxCell id="ncrKBHB-YB45-yIMeC7d-52" value="Saving Appointment" style="text;html=1;strokeColor=none;fillColor=none;align=center;verticalAlign=middle;whiteSpace=wrap;rounded=0;" vertex="1" parent="1">
          <mxGeometry x="530" y="559" width="110" height="30" as="geometry" />
        </mxCell>
        <mxCell id="ncrKBHB-YB45-yIMeC7d-54" value="" style="edgeStyle=orthogonalEdgeStyle;rounded=0;orthogonalLoop=1;jettySize=auto;html=1;endArrow=none;endFill=0;dashed=1;" edge="1" parent="1" source="ncrKBHB-YB45-yIMeC7d-19">
          <mxGeometry relative="1" as="geometry">
            <mxPoint x="260" y="633" as="targetPoint" />
            <mxPoint x="260" y="400" as="sourcePoint" />
          </mxGeometry>
        </mxCell>
        <mxCell id="ncrKBHB-YB45-yIMeC7d-57" style="edgeStyle=orthogonalEdgeStyle;rounded=0;orthogonalLoop=1;jettySize=auto;html=1;exitX=0;exitY=0.5;exitDx=0;exitDy=0;" edge="1" parent="1">
          <mxGeometry relative="1" as="geometry">
            <mxPoint x="84" y="629" as="targetPoint" />
            <mxPoint x="247.5" y="629" as="sourcePoint" />
          </mxGeometry>
        </mxCell>
        <mxCell id="ncrKBHB-YB45-yIMeC7d-56" value="Notify User on successful booking" style="text;html=1;strokeColor=none;fillColor=none;align=center;verticalAlign=middle;whiteSpace=wrap;rounded=0;" vertex="1" parent="1">
          <mxGeometry x="110" y="599" width="110" height="30" as="geometry" />
        </mxCell>
        <mxCell id="ncrKBHB-YB45-yIMeC7d-58" value="Booking Not Confirmed" style="text;html=1;strokeColor=none;fillColor=none;align=center;verticalAlign=middle;whiteSpace=wrap;rounded=0;" vertex="1" parent="1">
          <mxGeometry x="107" y="685" width="129.5" height="30" as="geometry" />
        </mxCell>
        <mxCell id="ncrKBHB-YB45-yIMeC7d-59" style="edgeStyle=orthogonalEdgeStyle;rounded=0;orthogonalLoop=1;jettySize=auto;html=1;" edge="1" source="ncrKBHB-YB45-yIMeC7d-60" parent="1">
          <mxGeometry relative="1" as="geometry">
            <mxPoint x="260" y="708" as="targetPoint" />
          </mxGeometry>
        </mxCell>
        <mxCell id="ncrKBHB-YB45-yIMeC7d-60" value="" style="rounded=0;whiteSpace=wrap;html=1;" vertex="1" parent="1">
          <mxGeometry x="72.5" y="693" width="25" height="30" as="geometry" />
        </mxCell>
        <mxCell id="ncrKBHB-YB45-yIMeC7d-61" value="Alt" style="shape=umlFrame;whiteSpace=wrap;html=1;pointerEvents=0;recursiveResize=0;container=1;collapsible=0;width=160;" vertex="1" parent="1">
          <mxGeometry x="30" y="440" width="760" height="400" as="geometry" />
        </mxCell>
        <mxCell id="ncrKBHB-YB45-yIMeC7d-63" value="Alt" style="shape=umlFrame;whiteSpace=wrap;html=1;pointerEvents=0;recursiveResize=0;container=1;collapsible=0;width=160;" vertex="1" parent="ncrKBHB-YB45-yIMeC7d-61">
          <mxGeometry x="10" y="70" width="715" height="230" as="geometry" />
        </mxCell>
        <mxCell id="ncrKBHB-YB45-yIMeC7d-64" value="[user cancels potential appointment]" style="text;html=1;strokeColor=none;fillColor=none;align=center;verticalAlign=middle;whiteSpace=wrap;rounded=0;fontSize=10;" vertex="1" parent="ncrKBHB-YB45-yIMeC7d-63">
          <mxGeometry x="2" y="145" width="160" height="30" as="geometry" />
        </mxCell>
        <mxCell id="ncrKBHB-YB45-yIMeC7d-65" value="[slot unavaible]&amp;nbsp;" style="text;html=1;strokeColor=none;fillColor=none;align=center;verticalAlign=middle;whiteSpace=wrap;rounded=0;fontSize=10;" vertex="1" parent="ncrKBHB-YB45-yIMeC7d-61">
          <mxGeometry x="32" y="300" width="120" height="30" as="geometry" />
        </mxCell>
        <mxCell id="ncrKBHB-YB45-yIMeC7d-74" value="" style="endArrow=none;html=1;rounded=0;exitX=0;exitY=0.565;exitDx=0;exitDy=0;exitPerimeter=0;entryX=0.997;entryY=0.563;entryDx=0;entryDy=0;entryPerimeter=0;" edge="1" parent="ncrKBHB-YB45-yIMeC7d-61" source="ncrKBHB-YB45-yIMeC7d-63" target="ncrKBHB-YB45-yIMeC7d-63">
          <mxGeometry width="50" height="50" relative="1" as="geometry">
            <mxPoint x="250" y="250" as="sourcePoint" />
            <mxPoint x="300" y="200" as="targetPoint" />
          </mxGeometry>
        </mxCell>
        <mxCell id="ncrKBHB-YB45-yIMeC7d-67" value="" style="edgeStyle=orthogonalEdgeStyle;rounded=0;orthogonalLoop=1;jettySize=auto;html=1;endArrow=none;endFill=0;dashed=1;" edge="1" parent="1" source="ncrKBHB-YB45-yIMeC7d-4">
          <mxGeometry relative="1" as="geometry">
            <mxPoint x="740" y="860" as="targetPoint" />
            <mxPoint x="740" y="120" as="sourcePoint" />
          </mxGeometry>
        </mxCell>
        <mxCell id="ncrKBHB-YB45-yIMeC7d-71" value="" style="edgeStyle=orthogonalEdgeStyle;rounded=0;orthogonalLoop=1;jettySize=auto;html=1;endArrow=none;endFill=0;dashed=1;" edge="1" parent="1" source="ncrKBHB-YB45-yIMeC7d-33">
          <mxGeometry relative="1" as="geometry">
            <mxPoint x="84.5" y="831" as="targetPoint" />
            <mxPoint x="85" y="581" as="sourcePoint" />
            <Array as="points" />
          </mxGeometry>
        </mxCell>
        <mxCell id="ncrKBHB-YB45-yIMeC7d-73" value="" style="endArrow=none;html=1;rounded=0;edgeStyle=orthogonalEdgeStyle;" edge="1" parent="1">
          <mxGeometry width="50" height="50" relative="1" as="geometry">
            <mxPoint x="30" y="860" as="sourcePoint" />
            <mxPoint x="760" y="860" as="targetPoint" />
          </mxGeometry>
        </mxCell>
        <mxCell id="ncrKBHB-YB45-yIMeC7d-78" value="Result:Availble/Not Availble" style="text;html=1;strokeColor=none;fillColor=none;align=center;verticalAlign=middle;whiteSpace=wrap;rounded=0;" vertex="1" parent="1">
          <mxGeometry x="292" y="402" width="155" height="30" as="geometry" />
        </mxCell>
      </root>
    </mxGraphModel>
  </diagram>
</mxfile>
